# xmcd
#
# Track frame offsets:
#	150
#	15645
#	31863
#	46371
#	64491
#	82042
#	96434
#	114423
#	131932
#	147014
#	161972
#	177685
#	192931
#
# Disc length: 2800 seconds
#
# Revision: 0
# Processed by: cddbd v1.5.1PL0 Copyright (c) Steve Scherf et al.
# Submitted via: dBpowerAMP V4.0
#
DISCID=c00aee0d
DTITLE=Nik P. - Briefe an den Mond
DYEAR=2005
DGENRE=Undefined
TTITLE0=Wieder Mitten Drin
TTITLE1=Briefe An Den Mond
TTITLE2=Lovin' You
TTITLE3=Engel Und Teufel
TTITLE4=Für Dich
TTITLE5=Ich Hab Sehnsucht
TTITLE6=Dich Zu Lieben
TTITLE7=Lass Es Uns Tun
TTITLE8=Manchmal Bin Ich Traurig
TTITLE9=Das Grösste Für Mich
TTITLE10=So Wie Du
TTITLE11=Reality TV
TTITLE12=Die Zeit
EXTD=
EXTT0=
EXTT1=
EXTT2=
EXTT3=
EXTT4=
EXTT5=
EXTT6=
EXTT7=
EXTT8=
EXTT9=
EXTT10=
EXTT11=
EXTT12=
PLAYORDER=
